<svg width="28" height="34" fill="none" xmlns="http://www.w3.org/2000/svg"><path d="M23.17 17.72c-.038-4.19 3.52-6.23 3.682-6.324-2.015-2.864-5.137-3.255-6.235-3.286-2.623-.27-5.167 1.53-6.503 1.53-1.362 0-3.42-1.504-5.637-1.46-2.853.043-5.523 1.653-6.987 4.155-3.02 5.1-.768 12.594 2.127 16.716 1.448 2.02 3.14 4.273 5.355 4.194 2.167-.087 2.976-1.347 5.59-1.347 2.591 0 3.351 1.347 5.61 1.296 2.325-.036 3.79-2.028 5.186-4.065 1.674-2.314 2.346-4.593 2.372-4.71-.054-.018-4.515-1.678-4.56-6.7ZM18.904 5.398c1.165-1.421 1.962-3.354 1.741-5.316-1.686.073-3.796 1.138-5.01 2.527-1.075 1.225-2.035 3.232-1.787 5.12 1.894.137 3.84-.932 5.056-2.331Z" fill="#fff"/></svg>